<?xml version="1.0" encoding="UTF-8"?>
<!DOCTYPE svg PUBLIC "-//W3C//DTD SVG 1.1//EN" "http://www.w3.org/Graphics/SVG/1.1/DTD/svg11.dtd">
<!-- Creator: CorelDRAW -->
<svg xmlns="http://www.w3.org/2000/svg" xml:space="preserve" width="0.493386in" height="0.493386in" version="1.1" style="shape-rendering:geometricPrecision; text-rendering:geometricPrecision; image-rendering:optimizeQuality; fill-rule:evenodd; clip-rule:evenodd"
viewBox="0 0 10.27 10.27"
 xmlns:xlink="http://www.w3.org/1999/xlink"
 xmlns:xodm="http://www.corel.com/coreldraw/odm/2003">
 <defs>
  <style type="text/css">
   <![CDATA[
    .fil0 {fill:#201E1E;fill-rule:nonzero}
   ]]>
  </style>
 </defs>
 <g id="Layer_x0020_1">
  <metadata id="CorelCorpID_0Corel-Layer"/>
  <path class="fil0" d="M6.51 7.44l-0.15 0 0 0.63c0,0.23 -0.24,0.39 -0.45,0.3l-2.82 -0.99c-0.01,-0 -0.02,-0.01 -0.04,-0.01l-0.02 -0.01 0 -0c-0.94,-0.31 -1.62,-1.23 -1.62,-2.27l0 -0.15c0,-1.3 1.05,-2.35 2.35,-2.35l2.75 0c1.3,0 2.35,1.05 2.35,2.35l0 0.15c0,1.3 -1.05,2.35 -2.35,2.35zm-1.37 -7.44c-2.84,0 -5.14,2.3 -5.14,5.14 0,2.84 2.3,5.14 5.14,5.14 2.84,0 5.14,-2.3 5.14,-5.14 0,-2.84 -2.3,-5.14 -5.14,-5.14z"/>
  <path class="fil0" d="M-0 5.14c0,2.84 2.3,5.14 5.14,5.14 2.84,0 5.14,-2.3 5.14,-5.14 0,-2.84 -2.3,-5.14 -5.14,-5.14 -2.84,0 -5.14,2.3 -5.14,5.14zm5.9 3.24l-2.82 -0.99c-0.01,-0 -0.02,-0.01 -0.04,-0.01l-0.02 -0 0 -0c-0.94,-0.31 -1.62,-1.23 -1.62,-2.27l0 -0.15c0,-1.3 1.05,-2.35 2.35,-2.35l2.75 0c1.3,0 2.35,1.05 2.35,2.35l0 0.15c0,1.3 -1.05,2.35 -2.35,2.35l-0.15 0 0 0.63c0,0.19 -0.15,0.33 -0.33,0.33 -0.04,0 -0.09,-0.01 -0.13,-0.03z"/>
  <path class="fil0" d="M3.28 6.1l0 0c-0.21,0 -0.39,-0.17 -0.39,-0.39l0 -1.14c0,-0.21 0.17,-0.39 0.39,-0.39 0.21,0 0.39,0.17 0.39,0.39l0 1.14c0,0.21 -0.17,0.39 -0.39,0.39z"/>
  <path class="fil0" d="M4.59 6.52l0 0c-0.21,0 -0.39,-0.17 -0.39,-0.39l0 -1.98c0,-0.21 0.17,-0.39 0.39,-0.39l0 0c0.21,0 0.39,0.17 0.39,0.39l0 1.98c0,0.21 -0.17,0.39 -0.39,0.39z"/>
  <path class="fil0" d="M5.9 5.73l0 0c-0.21,0 -0.39,-0.17 -0.39,-0.39l0 -0.4c0,-0.21 0.17,-0.39 0.39,-0.39 0.21,0 0.39,0.17 0.39,0.39l0 0.4c0,0.21 -0.17,0.39 -0.39,0.39z"/>
  <path class="fil0" d="M7.21 6.1l0 0c-0.21,0 -0.39,-0.17 -0.39,-0.39l0 -1.14c0,-0.21 0.17,-0.39 0.39,-0.39l0 0c0.21,0 0.39,0.17 0.39,0.39l0 1.14c0,0.21 -0.17,0.39 -0.39,0.39z"/>
 </g>
</svg>
